<svg width="14" height="15" viewBox="0 0 14 15" fill="none" xmlns="http://www.w3.org/2000/svg">
<g clip-path="url(#clip0_504_35)">
<path d="M1.20316 1.47945H3.38223L4.84221 8.7739C4.89203 9.02471 5.02847 9.25 5.22766 9.41035C5.42685 9.5707 5.67609 9.65588 5.93175 9.65098H11.2269C11.4826 9.65588 11.7318 9.5707 11.931 9.41035C12.1302 9.25 12.2666 9.02471 12.3164 8.7739L13.1881 4.20329H3.927M6.10607 12.3748C6.10607 12.6757 5.86217 12.9196 5.5613 12.9196C5.26044 12.9196 5.01654 12.6757 5.01654 12.3748C5.01654 12.074 5.26044 11.8301 5.5613 11.8301C5.86217 11.8301 6.10607 12.074 6.10607 12.3748ZM12.0985 12.3748C12.0985 12.6757 11.8546 12.9196 11.5538 12.9196C11.2529 12.9196 11.009 12.6757 11.009 12.3748C11.009 12.074 11.2529 11.8301 11.5538 11.8301C11.8546 11.8301 12.0985 12.074 12.0985 12.3748Z" stroke="white" stroke-width="1.03219" stroke-linecap="round" stroke-linejoin="round"/>
</g>
<defs>
<clipPath id="clip0_504_35">
<rect width="13.0744" height="13.0744" fill="white" transform="translate(0.658386 0.934677)"/>
</clipPath>
</defs>
</svg>
